<svg width="200" height="200" viewBox="0 0 200 200" xmlns="http://www.w3.org/2000/svg">
  <defs>
    <linearGradient id="skyGradient" x1="0%" y1="0%" x2="0%" y2="100%">
      <stop offset="0%" style="stop-color:#87CEEB;stop-opacity:1" />
      <stop offset="100%" style="stop-color:#E0F6FF;stop-opacity:1" />
    </linearGradient>
    <linearGradient id="mountainGradient" x1="0%" y1="0%" x2="0%" y2="100%">
      <stop offset="0%" style="stop-color:#8B7355;stop-opacity:1" />
      <stop offset="100%" style="stop-color:#A0522D;stop-opacity:1" />
    </linearGradient>
    <linearGradient id="bikeGradient" x1="0%" y1="0%" x2="100%" y2="0%">
      <stop offset="0%" style="stop-color:#FF6B35;stop-opacity:1" />
      <stop offset="100%" style="stop-color:#FF4500;stop-opacity:1" />
    </linearGradient>
  </defs>
  
  <!-- Sky background -->
  <rect width="200" height="120" fill="url(#skyGradient)"/>
  
  <!-- Mountains in background -->
  <polygon points="0,80 40,40 80,60 120,30 160,50 200,20 200,120 0,120" fill="#B8860B" opacity="0.6"/>
  <polygon points="20,100 60,60 100,80 140,50 180,70 200,60 200,120 20,120" fill="url(#mountainGradient)"/>
  
  <!-- Trail/path -->
  <path d="M0,140 Q50,130 100,135 T200,145" stroke="#8B4513" stroke-width="8" fill="none" opacity="0.7"/>
  <path d="M0,145 Q50,135 100,140 T200,150" stroke="#CD853F" stroke-width="6" fill="none" opacity="0.8"/>
  
  <!-- Trees -->
  <ellipse cx="30" cy="115" rx="8" ry="12" fill="#228B22"/>
  <rect x="28" y="115" width="4" height="8" fill="#8B4513"/>
  <ellipse cx="170" cy="110" rx="6" ry="10" fill="#228B22"/>
  <rect x="168" y="110" width="4" height="6" fill="#8B4513"/>
  <ellipse cx="185" cy="125" rx="5" ry="8" fill="#228B22"/>
  <rect x="183" y="125" width="4" height="5" fill="#8B4513"/>
  
  <!-- Motorcycle -->
  <g transform="translate(85,130) scale(0.8)">
    <!-- Motorcycle body -->
    <ellipse cx="0" cy="0" rx="18" ry="8" fill="url(#bikeGradient)"/>
    <!-- Front wheel -->
    <circle cx="15" cy="8" r="7" fill="#333" stroke="#666" stroke-width="2"/>
    <circle cx="15" cy="8" r="3" fill="#999"/>
    <!-- Rear wheel -->
    <circle cx="-15" cy="8" r="7" fill="#333" stroke="#666" stroke-width="2"/>
    <circle cx="-15" cy="8" r="3" fill="#999"/>
    <!-- Handlebars -->
    <line x1="12" y1="-3" x2="20" y2="-8" stroke="#333" stroke-width="3"/>
    <!-- Seat -->
    <ellipse cx="-8" cy="-2" rx="6" ry="3" fill="#000"/>
    <!-- Exhaust -->
    <rect x="-20" y="2" width="8" height="3" fill="#666" rx="1"/>
  </g>
  
  <!-- Rider -->
  <g transform="translate(85,115) scale(0.6)">
    <!-- Helmet -->
    <circle cx="0" cy="0" r="8" fill="#FF4500"/>
    <circle cx="0" cy="0" r="6" fill="#333" opacity="0.3"/>
    <!-- Body -->
    <ellipse cx="0" cy="15" rx="6" ry="12" fill="#4169E1"/>
    <!-- Arms -->
    <ellipse cx="-8" cy="10" rx="3" ry="8" fill="#4169E1" transform="rotate(-20)"/>
    <ellipse cx="8" cy="10" rx="3" ry="8" fill="#4169E1" transform="rotate(20)"/>
    <!-- Legs -->
    <ellipse cx="-3" cy="25" rx="3" ry="10" fill="#000"/>
    <ellipse cx="3" cy="25" rx="3" ry="10" fill="#000"/>
  </g>
  
  <!-- Dust cloud -->
  <ellipse cx="75" cy="145" rx="15" ry="5" fill="#DDD" opacity="0.6"/>
  <ellipse cx="70" cy="148" rx="8" ry="3" fill="#CCC" opacity="0.4"/>
  
  <!-- Sun -->
  <circle cx="170" cy="30" r="12" fill="#FFD700"/>
  <g transform="translate(170,30)">
    <line x1="-20" y1="0" x2="-16" y2="0" stroke="#FFD700" stroke-width="2"/>
    <line x1="16" y1="0" x2="20" y2="0" stroke="#FFD700" stroke-width="2"/>
    <line x1="0" y1="-20" x2="0" y2="-16" stroke="#FFD700" stroke-width="2"/>
    <line x1="0" y1="16" x2="0" y2="20" stroke="#FFD700" stroke-width="2"/>
    <line x1="-14" y1="-14" x2="-11" y2="-11" stroke="#FFD700" stroke-width="2"/>
    <line x1="11" y1="11" x2="14" y2="14" stroke="#FFD700" stroke-width="2"/>
    <line x1="14" y1="-14" x2="11" y2="-11" stroke="#FFD700" stroke-width="2"/>
    <line x1="-11" y1="11" x2="-14" y2="14" stroke="#FFD700" stroke-width="2"/>
  </g>
  
  <!-- Birds -->
  <path d="M140,45 Q145,40 150,45 Q145,50 140,45" fill="#333"/>
  <path d="M130,35 Q135,30 140,35 Q135,40 130,35" fill="#333"/>
</svg>